<?xml version="1.0" encoding="utf-8"?>
<!-- Generator: Adobe Illustrator 26.4.1, SVG Export Plug-In . SVG Version: 6.00 Build 0)  -->
<svg version="1.1" id="Слой_1" xmlns="http://www.w3.org/2000/svg" xmlns:xlink="http://www.w3.org/1999/xlink" x="0px" y="0px"
	 viewBox="0 0 220 116.4" style="enable-background:new 0 0 220 116.4;" xml:space="preserve">
<style type="text/css">
	.st0{fill:none;stroke:#C9CBCD;stroke-width:2;}
	.st1{fill:none;stroke:#81A5B8;stroke-width:2;}
	.st2{fill:none;stroke:#88D5F1;stroke-width:2;}
	.st3{fill:none;stroke:#097BA9;stroke-width:2;}
	.st4{fill:none;stroke:#51A1BE;stroke-width:2;}
	.st5{fill:none;}
	.st6{fill:#92979A;}
	.st7{fill:#024B70;}
	.st8{fill:#10AAE2;}
	.st9{fill:#FFFFFF;}
</style>
<g>
	<path vector-effect="non-scaling-stroke" class="st0" d="M89,6.2c0-0.5-0.4-0.9-0.8-0.9l0,0h-4.6c-0.5,0-0.9,0.4-0.9,0.8l-0.1,4.6
		c0,0.5,0.4,0.9,0.8,0.9l4.5,0.1c0.5,0,0.9-0.4,0.9-0.8L89,6.2"/>
	<path vector-effect="non-scaling-stroke" class="st1" d="M98,15.4c0.3,0,0.5,0.2,0.5,0.5v3c0,0.3,0.2,0.5,0.5,0.5l0,0h3.3
		c0.3,0,0.5-0.2,0.5-0.5l0,0v-3.2c0-0.3-0.2-0.5-0.5-0.5L99.2,15c-0.3,0-0.5-0.2-0.5-0.5v-5c0-0.3-0.2-0.5-0.5-0.5l0,0H93
		c-0.3,0-0.5,0.2-0.5,0.5l0,0v5.2c0,0.3,0.2,0.5,0.5,0.5L98,15.4"/>
	<path vector-effect="non-scaling-stroke" class="st0" d="M104.3,10.8c0-0.9-0.7-1.6-1.6-1.6s-1.6,0.7-1.6,1.6s0.7,1.6,1.6,1.6
		S104.3,11.7,104.3,10.8"/>
	<path vector-effect="non-scaling-stroke" class="st1" d="M86.3,24.5l-10.6,2.2c-1.5,0.3-2.2,1.2-2.2,2.8l0.9,20.8
		c0,1.3,1.1,2.2,2.3,2.2l43.7-1.3c1.9-0.1,3.4-1.6,3.3-3.5c0-0.1,0-0.1,0-0.2c-0.6-8.5-1.3-16.8-1.9-25c-0.1-1.1-0.4-2.1-0.8-3.1
		c-0.1-0.3-0.4-0.5-0.8-0.6c-1.1-0.2-2.3-0.2-3.8,0c-7.7,1.4-15.5,2.9-23.2,4.5"/>
	<path vector-effect="non-scaling-stroke" class="st2" d="M93.2,23.3c-0.3-0.8-0.3-1.6-0.1-2.4c0.1-0.3,0.4-0.4,0.7-0.4
		c0.1,0,0.1,0,0.1,0.1c0.8,0.5,1.4,0.4,2-0.4c0.5-0.8,0.4-1.8-0.4-2.4c-0.3-0.2-0.6-0.3-1-0.3c-1.5,0-2.2,0.7-2.1,2.3
		c0,0.3-0.2,0.5-0.5,0.6l0,0h-4.5c-0.3,0-0.5-0.2-0.5-0.5v-4c0-0.5-0.2-0.8-0.8-0.8h-4.6c-0.4,0-0.6,0.2-0.6,0.5L81,20
		c0,0.4,0.3,0.8,0.7,0.8l0,0h4c0.3,0,0.6,0.1,0.8,0.4c0.6,1,0.5,2.1-0.2,3.3"/>
	<path vector-effect="non-scaling-stroke" class="st3" d="M93.2,23.3c-0.3,0.9-0.4,1.9-0.2,2.8c0.1,0.3,0.3,0.5,0.6,0.5l2.7,0.1
		c0.4,0,0.6,0.3,0.6,0.7l0,0l-0.2,2.5c0,0.5,0.2,0.7,0.6,0.7l6.4-0.3c0.6,0,1.2,0.5,1.2,1.1c0,0,0,0,0,0.1v6.7
		c0,0.5-0.2,0.8-0.8,0.8h-6.6c-0.4,0-0.7,0.3-0.7,0.7v2.7c0,0.4-0.3,0.7-0.6,0.7l0,0h-3c-0.5,0-0.7-0.2-0.7-0.7v-2.9
		c0-0.5,0.2-0.7,0.7-0.7h3c0.3,0,0.4-0.1,0.4-0.4v-6.5c0-0.5-0.2-0.7-0.7-0.8l-2.8-0.4c-0.4-0.1-0.6-0.3-0.6-0.8l0.2-2.2
		c0-0.3-0.2-0.6-0.5-0.6l-2.6-0.4c-0.4-0.1-0.8,0.2-0.8,0.6v0.1v4.9c0,0.3-0.3,0.6-0.6,0.6L83,33c-0.4,0-0.7-0.3-0.7-0.7l0,0
		l0.1-4.4c0-0.4,0.3-0.8,0.7-0.8c3.1-0.4,4-1.2,3-2.4"/>
	<path vector-effect="non-scaling-stroke" class="st2" d="M135.8,75c0.2,0,0.3,0.1,0.5,0.2c0.3,0.2,0.4,0.4,0.5,0.8
		c0.8,5.4,12.1,6.6,11.8,0c0-0.3-0.1-0.6-0.4-0.8c-3.4-3.7-7.3-4-11.8-0.8"/>
	<path vector-effect="non-scaling-stroke" class="st0" d="M136.4,74.4c-4.1,0.2-7.4-0.3-10.1-1.3c-1.8-0.7-1.9-1.5-0.2-2.5
		c5.6-3.2,11-6.2,16.3-9.1c1.1-0.6,2-1.3,2.8-2.2c0.2-0.2,0.3-0.6,0.2-0.9c-1.3-5.2-17.9-3.7-22-3.7c-16.4-0.1-33.1-0.1-50.1-0.1
		c-1,0-1.8,0.8-1.8,1.9c0,0.1,0,0.3,0,0.4l1.8,8.7c0.2,1,0.9,1.6,1.9,1.6h47.7c1.2,0,2.2-0.8,2.5-2l1.8-8.7c0.1-0.3,0.3-0.6,0.6-0.6
		c5.3-0.9,10.5-0.4,15.5,1.4c0.7,0.3,1.1,1.1,0.9,1.8c-0.1,0.3-0.3,0.6-0.6,0.8c-6.3,3.5-13.9,6.7-19.2,11.4
		c-0.6,0.6-0.7,1.6-0.1,2.2c0.2,0.2,0.4,0.4,0.7,0.5c3.3,1,6.9,1.4,10.8,1.3"/>
	<path vector-effect="non-scaling-stroke" class="st4" d="M136.4,74.4c-0.1,0.2-0.3,0.4-0.6,0.7"/>
	<path vector-effect="non-scaling-stroke" class="st1" d="M180.9,97.3l0.3-5.3c0-0.4-0.2-0.7-0.6-0.7h-0.9c-0.3,0-0.5,0.2-0.5,0.5
		v15.4c0,0.3,0.2,0.5,0.5,0.5h0.8c0.4,0,0.6-0.2,0.6-0.6v-7.5c0-0.4,0.2-0.7,0.6-0.9l2.5-1.2c0.9-0.4,2-0.1,2.4,0.8
		c0.1,0.3,0.2,0.5,0.2,0.8v8c0,0.3,0.2,0.5,0.5,0.5h1c0.4,0,0.6-0.2,0.6-0.6l-0.3-9c0-0.6-0.4-1.1-0.9-1.3c-2.1-0.9-4-0.6-5.7,0.9
		C181.2,98.4,180.9,98.3,180.9,97.3 M26,98.8l-4.4-6.2c-0.2-0.3-0.6-0.5-1-0.5h-0.7c-0.7,0-0.9,0.3-0.4,0.9l5.3,7.1
		c0.2,0.2,0.3,0.5,0.3,0.8v6.3c0,0.3,0.3,0.6,0.6,0.6h0.9c0.4,0,0.6-0.2,0.6-0.6c-0.2-3.2-0.6-6.1,1.3-8.9c1.4-2,2.8-3.9,4.2-5.8
		c0.2-0.2,0.1-0.5-0.1-0.7c-0.2-0.1-0.4-0.1-0.5,0l-0.6,0.3c-0.2,0.1-0.4,0.3-0.6,0.5l-4.2,6.1C26.4,99.1,26.2,99.1,26,98.8
		 M63.1,107c-8.4-2.6-7.1-18,5.4-13c0.5,0.2,0.6,0.1,0.3-0.4c-0.6-0.9-1.4-1.5-2.5-1.7c-15-2.8-14.1,20,1.3,15.7
		c0.4-0.1,0.7-0.3,0.8-0.5c0.2-0.4,0.3-0.7,0.3-1.1c-0.1-0.4-0.3-0.5-0.6-0.2C66.6,107.1,64.9,107.5,63.1,107 M171.1,93.1
		c1.4-0.7,2.5-0.4,3.2,0.9c0.1,0.2,0.4,0.3,0.6,0.2c0.1,0,0.1-0.1,0.2-0.2c0.3-0.6,0.2-1.1-0.5-1.6c-4.7-2.8-8.4,3.1-4.5,6.7
		c1.5,1.4,2.8,2.9,3.8,4.5c0.7,1,0.4,2.4-0.6,3c-0.3,0.2-0.6,0.3-1,0.3c-1.5,0.2-2.7-0.4-3.5-1.8c-0.2-0.3-0.4-0.3-0.5,0
		c-0.5,0.8-0.3,1.5,0.5,2c2.2,1.4,4.2,1.4,5.9-0.2c5.6-5-6.4-8.9-4.3-13.3C170.5,93.5,170.8,93.3,171.1,93.1 M11.1,101.2l4.8,6.3
		c0.2,0.2,0.4,0.3,0.6,0.3H18c0.4,0,0.5-0.2,0.3-0.5l-5.6-7.2c-0.4-0.5-0.4-1.1,0-1.6l4.9-5.9c0.2-0.3,0.2-0.5-0.2-0.6
		c-0.5-0.1-1,0.1-1.4,0.6c-1.4,1.8-2.8,3.6-4.3,5.3c-0.2,0.3-0.5,0.3-0.7,0c-1.5-1.8-3.7-6.8-6.3-5.7c-0.2,0.1-0.2,0.2-0.1,0.4
		l5.2,6.9c0.2,0.3,0.2,0.6,0,0.9l-5.7,7.4C4,108,4,108.2,4.2,108.3c0.1,0,0.1,0.1,0.2,0.1c0.4,0,0.7-0.2,1-0.5
		c1.8-2.2,3.6-4.4,5.1-6.6C10.7,101.1,10.9,101,11.1,101.2C11.1,101.1,11.1,101.2,11.1,101.2 M36.7,106.9c-0.2,0-0.3-0.1-0.3-0.3
		c0-0.1,0-0.1,0.1-0.2l10.4-14c0.1-0.1,0.1-0.3-0.1-0.4c-0.1,0-0.1-0.1-0.2-0.1H34.5c-0.2,0-0.3,0.1-0.3,0.3v0.7
		c0,0.2,0.1,0.3,0.3,0.3l0,0l8.9-0.4c0.2,0,0.3,0.1,0.3,0.3c0,0.1,0,0.1-0.1,0.2l-10.2,14c-0.1,0.1-0.1,0.3,0.1,0.4
		c0,0,0.1,0.1,0.2,0.1h13.5c0.2,0,0.3-0.1,0.3-0.3c0-0.1,0-0.2-0.1-0.2l-0.8-0.8c-0.1-0.1-0.1-0.1-0.2-0.1L36.7,106.9 M135.6,107.1
		c-0.7,0.2-1.4-0.2-1.6-0.9c0-0.1-0.1-0.2-0.1-0.4v-7.9c0-0.4,0.2-0.6,0.6-0.6l2.7,0.1c0.1,0,0.2,0,0.2-0.2l0.1-0.2
		c0.2-0.5,0.1-0.7-0.5-0.7h-2.6c-0.4,0-0.6-0.2-0.6-0.6v-2.4c0-0.3-0.2-0.5-0.5-0.5h-1c-0.3,0-0.5,0.2-0.5,0.5v2.3
		c0,0.3-0.2,0.6-0.5,0.6l-0.9,0.2c-0.2,0-0.3,0.2-0.2,0.4c0,0.1,0.2,0.2,0.3,0.2c1,0,1.5,0.5,1.4,1.5c-0.2,2.9-0.1,5.5,0.4,8
		c0.1,0.3,0.2,0.6,0.5,0.8c1.1,0.7,2.4,0.9,3.7,0.7c0.6-0.1,0.9-0.4,1-0.7c0.1-0.2,0-0.5-0.3-0.6c-0.1,0-0.2,0-0.3,0L135.6,107.1
		 M82.7,102.2c0-3.3-2.6-5.9-5.9-5.9l0,0c-3.3,0-5.9,2.6-5.9,5.9l0,0c0,3.3,2.6,5.9,5.9,5.9l0,0C80,108.1,82.7,105.4,82.7,102.2
		L82.7,102.2 M87.3,97.4c-0.1-0.6-0.4-0.9-0.8-1.1c-0.6-0.2-1.2,0.1-1.4,0.7c0,0.1-0.1,0.2,0,0.4l0.3,9.9c0,0.3,0.2,0.5,0.5,0.5h0.7
		c0.3,0,0.5-0.2,0.5-0.5l0.1-7.9c0-0.3,0.2-0.5,0.4-0.7l2.5-1c0.9-0.4,1.9,0.1,2.3,1c0.1,0.2,0.1,0.4,0.1,0.6l0.1,7.9
		c0,0.3,0.2,0.5,0.5,0.5h1c0.3,0,0.5-0.2,0.5-0.5v-7.8c0-0.3,0.1-0.5,0.4-0.6l2.2-1.3c0.9-0.5,2-0.2,2.5,0.7
		c0.2,0.3,0.2,0.6,0.2,0.9v7.9c0,0.4,0.3,0.7,0.7,0.7l0,0h0.7c0.3,0,0.5-0.2,0.5-0.5c0-3.9,1.7-14.8-6.7-9.4
		c-0.3,0.2-0.6,0.2-0.9-0.1c-1.9-1.8-4-1.8-6.2-0.1C87.6,97.9,87.4,97.8,87.3,97.4 M107.8,107.7c6.2,1.9,10.7-5.1,6.4-10
		c-1.8-2-5.9-1.2-8.5-1.3c-0.4,0-0.6,0.2-0.6,0.5l0.1,15.7c0,0.5,0.4,0.8,0.9,0.8h0.1c0.8-0.1,1.1-0.6,0.9-1.4c-0.3-1.3-0.3-2.7,0-4
		C107.2,107.7,107.4,107.6,107.8,107.7 M121.3,106.4c-1.5-2.1-0.8-7.7-0.7-9.5c0-0.6-0.2-0.8-0.8-0.7l-1.1,0.3
		c-0.2,0.1-0.4,0.3-0.4,0.5c0.3,4.6-1.8,13.9,6.8,9.6c0.3-0.2,0.6-0.1,0.7,0.3l0.3,0.6c0.2,0.5,0.8,0.7,1.4,0.5
		c0.4-0.2,0.6-0.6,0.6-1c-0.3-3.3-0.3-6.5,0.1-9.8c0-0.4-0.1-0.6-0.5-0.6h-0.8c-0.4,0-0.6,0.2-0.6,0.6l-0.2,7.8
		c0,0.4-0.2,0.7-0.7,0.8l-3.2,0.9C121.9,106.8,121.5,106.7,121.3,106.4 M149,106c-3.1,2.3-7,0.7-6.9-3.3c0-0.3,0.1-0.4,0.4-0.4h7
		c0.5,0,0.9-0.4,0.9-0.9v-0.1c-0.9-7.2-10.5-6.1-10.6,0.5c-0.1,4.9,7.3,9.2,9.6,4.5C149.8,105.7,149.6,105.6,149,106 M154.5,96.8
		c-0.4-0.3-0.9-0.4-1.4-0.3c-0.3,0-0.5,0.2-0.5,0.5l0.1,10.2c0,0.3,0.2,0.5,0.5,0.6l0.7,0.2c0.4,0.1,0.8-0.2,0.8-0.6v-0.1v-8
		c0-0.3,0.1-0.5,0.4-0.7c1.2-0.8,2.6-1,3.9-0.6c0.4,0.1,0.6,0,0.7-0.4c0.1-0.8-0.3-1.2-1.3-1.2c-0.3,0-0.6,0.1-0.9,0.2
		c-0.7,0.3-1.4,0.5-2.1,0.5C155.1,97.1,154.8,97,154.5,96.8 M203.2,102.2c0-3.3-2.6-5.9-5.9-5.9s-5.9,2.6-5.9,5.9s2.6,5.9,5.9,5.9
		S203.2,105.4,203.2,102.2 M208.1,107.7c9.9,2.5,11.5-12.2,1.4-11.2c-1.1,0.1-2.2,0-3.3-0.2c-0.2-0.1-0.5,0.1-0.5,0.3v0.1v16.2
		c0,0.3,0.1,0.4,0.4,0.4h1.2c0.4,0,0.5-0.2,0.5-0.5l-0.3-4.4C207.4,107.8,207.6,107.6,208.1,107.7"/>
	<path vector-effect="non-scaling-stroke" class="st0" d="M75.4,58l-0.2,0.7c-0.1,0.3,0.1,0.7,0.5,0.7c0.1,0,0.1,0,0.2,0l1.2-0.2
		c0.3,0,0.5-0.3,0.5-0.6l0,0l-0.2-2c-0.1-0.6-0.6-1-1.2-1c-0.1,0-0.3,0.1-0.4,0.1c-0.7,0.4-0.9,0.9-0.5,1.5
		C75.4,57.5,75.5,57.7,75.4,58 M80.3,57.6l1.1-0.4c0.4-0.1,0.5-0.6,0.4-0.9c-0.1-0.2-0.3-0.4-0.5-0.4l-1.5-0.2
		c-0.3-0.1-0.6,0.1-0.6,0.4c0,0.1,0,0.1,0,0.2l0.3,2.8c0,0.3,0.3,0.5,0.6,0.5l1.3-0.1c0.3,0,0.6-0.3,0.6-0.6s-0.3-0.6-0.6-0.6h-0.9
		c-0.1,0-0.2-0.1-0.2-0.3C80.1,57.7,80.2,57.6,80.3,57.6 M86,56.4c-0.1-0.5-0.7-0.9-1.4-0.8l0,0c-0.7,0.1-1.2,0.6-1.2,1.2
		c0.1,0.5,0.7,0.9,1.4,0.8l0,0C85.6,57.5,86.1,57,86,56.4 M87.8,57.1l1.5,0.5c0.4,0.1,0.6,0,0.7-0.4l0.2-1c0-0.3-0.2-0.6-0.5-0.7
		c-0.1,0-0.1,0-0.2,0L88,55.8c-0.4,0.1-0.6,0.4-0.5,0.8C87.4,56.9,87.6,57.1,87.8,57.1 M106.4,55.6l-2.1,0.3c-0.3,0-0.4,0.3-0.4,0.5
		c0,0.1,0.1,0.2,0.1,0.3c0.9,1,1.8,1.1,2.9,0.5c0.4-0.2,0.5-0.8,0.3-1.2C107,55.7,106.7,55.5,106.4,55.6 M124,56.4
		c0-0.5-0.7-0.9-1.5-0.9c-0.9,0-1.6,0.3-1.6,0.8s0.7,0.9,1.5,0.9C123.3,57.2,124,56.9,124,56.4 M92.6,57.4l1.2-0.2
		c0.4,0,0.7-0.4,0.6-0.8c0-0.3-0.2-0.5-0.5-0.6c-1-0.4-1.7-0.2-2,0.7c-0.1,0.3,0.1,0.7,0.4,0.8C92.4,57.4,92.5,57.4,92.6,57.4
		 M98.8,56.4c0.1-0.3-0.1-0.5-0.3-0.6h-0.1h-2c-0.4,0-0.8,0.3-0.8,0.8c0,0.3,0.2,0.6,0.5,0.7C97.5,58,98.4,57.7,98.8,56.4
		 M100.8,57.6c0.8-0.2,1.4-0.4,1.9-0.8c0.2-0.2,0.3-0.5,0.1-0.7c-0.1-0.1-0.2-0.2-0.3-0.2c-0.7-0.2-1.5-0.2-2.2-0.1
		c-0.5,0.1-0.7,0.6-0.6,1.1C99.9,57.4,100.3,57.7,100.8,57.6 M108.3,55.9c-0.2,0-0.3,0.1-0.2,0.3c0.5,1.3,1.3,1.6,2.6,1.1
		c0.4-0.2,0.6-0.7,0.4-1.1c-0.1-0.3-0.5-0.5-0.8-0.5L108.3,55.9 M114.1,57.4c0.4,0,0.8,0,1-0.1c0.4-0.1,0.6-0.6,0.5-1
		c-0.1-0.3-0.3-0.5-0.6-0.5h-1.8c-0.5,0-0.8,0.4-0.8,0.9c0,0.4,0.3,0.7,0.6,0.8C113.6,57.6,113.9,57.5,114.1,57.4 M120,56.6
		c0-0.5-0.7-0.9-1.6-0.9l0,0c-0.9,0-1.6,0.3-1.6,0.8l0,0c0,0.5,0.7,0.9,1.6,0.9C119.3,57.4,120,57.1,120,56.6"/>
	<path vector-effect="non-scaling-stroke" class="st0" d="M104.1,59.1c0.6,0.4,1.3,0.6,2.1,0.5c0.4,0,0.8-0.5,0.7-0.9
		c0-0.4-0.5-0.8-0.9-0.7c-0.7,0.1-1.3,0.3-1.9,0.6C103.9,58.8,103.9,58.9,104.1,59.1 M84.9,58.2c-0.5,0-0.9,0.1-1.3,0.2
		c-0.2,0.1-0.4,0.3-0.3,0.5s0.2,0.3,0.4,0.3h1.7c0.3,0,0.6-0.3,0.6-0.6c0-0.2-0.1-0.4-0.3-0.5C85.3,58,85.1,58,84.9,58.2 M89.2,58.2
		c-0.6-0.1-1.1,0-1.5,0.4c-0.4,0.5-0.3,0.7,0.3,0.7h1.8c0.3,0,0.5-0.2,0.5-0.5c0-0.2-0.1-0.4-0.3-0.5C89.6,58.1,89.3,58,89.2,58.2
		 M98.2,59.6c0.6,0.4,0.8,0.3,0.6-0.5l-0.4-1.2c-0.2-0.6-0.8-0.9-1.3-0.7c-0.2,0.1-0.4,0.2-0.5,0.3c-0.5,0.7-0.7,1.2-0.5,1.6
		c0.1,0.2,0.3,0.2,0.4,0.2C97.1,59.2,97.7,59.2,98.2,59.6 M100.8,58.2c-0.2-0.2-0.4-0.2-0.7,0.1c-0.2,0.2-0.3,0.6-0.1,0.8
		c0.1,0.1,0.3,0.2,0.4,0.2h2.2c0.2,0,0.4-0.2,0.4-0.4c0-0.2-0.1-0.3-0.3-0.4C102.2,58.2,101.5,58.1,100.8,58.2 M111,58.6
		c-0.1-0.4-0.7-0.6-1.5-0.4l0,0c-0.8,0.1-1.3,0.5-1.3,0.9l0,0c0.1,0.4,0.7,0.6,1.5,0.4C110.5,59.3,111.1,58.9,111,58.6 M113.8,58.3
		c-0.3,0-0.5,0.1-0.7,0.3c-0.3,0.5-0.2,0.7,0.4,0.7h1.3c0.4,0,0.6-0.3,0.6-0.7c0-0.2-0.1-0.3-0.2-0.4c-0.2-0.2-0.4-0.3-0.7-0.2
		C114,58.2,113.8,58.3,113.8,58.3 M118.1,58c-0.3-0.1-0.7,0-1,0.2s-0.3,0.6-0.1,0.8c0.1,0.2,0.3,0.2,0.5,0.2h1.7
		c0.3,0,0.5-0.2,0.5-0.5c0-0.1,0-0.2-0.1-0.3c-0.1-0.2-0.3-0.3-0.6-0.3C118.6,58.1,118.2,58.1,118.1,58 M124,58.7
		c-0.8-0.5-1.7-0.7-2.8-0.6c-0.3,0-0.6,0.2-0.6,0.5s0.2,0.6,0.5,0.6l2.6,0.2C124.9,59.6,125,59.3,124,58.7 M94,59.4
		c0.3,0.3,0.4,0.2,0.6-0.4c0.1-0.3-0.2-0.7-0.5-0.7c-0.1,0-0.1,0-0.2,0l-1.7,0.1c-0.3,0-0.5,0.2-0.4,0.5s0.2,0.4,0.4,0.4l0,0h1.5
		C93.8,59.3,93.9,59.3,94,59.4 M77.2,60.2l-1.7-0.1c-0.3,0-0.5,0.2-0.5,0.5l0,0v1.3c-0.1,1.3,0.4,2.4,1,2.4h0.4c0.6,0,1.2-1,1.3-2.3
		l0,0l0.1-1.3C77.7,60.4,77.5,60.2,77.2,60.2C77.3,60.2,77.3,60.2,77.2,60.2"/>
	<path vector-effect="non-scaling-stroke" class="st0" d="M79.4,62.5c-0.4,0.7-0.3,1.4,0.5,1.9c0.4,0.3,0.9,0.2,1.2-0.2
		c0.1-0.1,0.1-0.3,0.2-0.4l0.3-2.9c0-0.4-0.1-0.6-0.5-0.6h-1.4c-0.3,0-0.5,0.2-0.5,0.5c0,0.1,0,0.1,0,0.2l0.3,0.8
		C79.6,62,79.5,62.3,79.4,62.5 M83.9,60.3c-0.3,0-0.4,0.1-0.4,0.4V61c0,0.3,0.2,0.5,0.4,0.5l1.2,0.2c0.4,0.1,0.6-0.1,0.6-0.5v-0.4
		c0-0.3-0.2-0.5-0.5-0.5H83.9 M90.4,60.8c0-0.4-0.7-0.7-1.5-0.6s-1.4,0.5-1.4,0.9s0.7,0.7,1.5,0.6l0,0
		C89.8,61.6,90.4,61.2,90.4,60.8L90.4,60.8 M92.1,61.2c0.8,0.5,1.6,0.5,2.4,0.1c0.3-0.2,0.4-0.6,0.3-0.9c-0.1-0.2-0.4-0.4-0.7-0.3
		l-1.8,0.3c-0.3,0-0.4,0.3-0.4,0.5C91.9,61,91.9,61.2,92.1,61.2 M98.7,60.9c0-0.4-0.6-0.8-1.4-0.9l0,0c-0.8,0-1.4,0.3-1.5,0.7l0,0
		c0,0.4,0.6,0.8,1.4,0.9l0,0C98,61.7,98.7,61.3,98.7,60.9L98.7,60.9 M107,60.8c0-0.4-0.7-0.7-1.6-0.6c-0.8,0.1-1.5,0.4-1.4,0.8
		c0,0.4,0.7,0.7,1.6,0.6C106.4,61.5,107.1,61.1,107,60.8 M113.4,62.2l-0.4,1c-0.2,0.5-0.1,0.8,0.5,0.9c0.9,0.2,1.6-0.2,2.1-1
		c0.1-0.2,0-0.4-0.2-0.5l-0.7-0.4c-0.2-0.1-0.3-0.4-0.1-0.5c0.1-0.1,0.2-0.2,0.3-0.2c0.3,0,0.4-0.1,0.4-0.3c0.1-0.5-0.1-0.8-0.7-0.8
		h-1.1c-0.1,0-0.3,0.1-0.3,0.2c-0.3,0.5-0.3,1,0.1,1.2C113.5,61.8,113.5,62,113.4,62.2 M119.6,60.2l-1.9-0.2c-0.3,0-0.6,0.2-0.7,0.5
		v0.1l0.2,3c0,0.4,0.3,0.7,0.7,0.6c0,0,0,0,0.1,0l1.1-0.2c0.6-0.1,0.7-0.4,0.4-0.9c-0.5-0.9-0.4-1.7,0.3-2.4c0.1-0.1,0.1-0.3,0-0.5
		C119.7,60.3,119.7,60.2,119.6,60.2 M100.2,61.1c0.7,0.4,1.4,0.5,2.2,0.4c0.3-0.1,0.5-0.4,0.4-0.7c-0.1-0.3-0.3-0.4-0.6-0.5h-1.8
		c-0.3,0-0.5,0.2-0.5,0.5C100,60.9,100.1,61.1,100.2,61.1 M111,60.9c0-0.4-0.6-0.6-1.4-0.6l0,0c-0.8,0-1.4,0.3-1.4,0.7l0,0
		c0,0.4,0.6,0.6,1.4,0.6l0,0C110.4,61.5,111,61.2,111,60.9L111,60.9 M121.7,61.6l1.8-0.4c0.3,0,0.4-0.3,0.4-0.6
		c0-0.2-0.2-0.4-0.5-0.4h-2.1c-0.2,0-0.4,0.2-0.4,0.4l0,0c0,0.1,0,0.2,0,0.3c0,0.3,0.2,0.6,0.6,0.6
		C121.6,61.6,121.7,61.6,121.7,61.6 M111.2,63.1c0-0.5-0.4-0.8-0.8-0.8l0,0l-21.9,0.1c-0.5,0-0.8,0.4-0.8,0.8l0,0v0.1
		c0,0.5,0.4,0.8,0.8,0.8l0,0l21.9-0.1C110.8,64,111.2,63.6,111.2,63.1L111.2,63.1L111.2,63.1 M84.9,64c0.3,0.2,0.7,0.2,1,0
		c0.3-0.1,0.4-0.4,0.3-0.7c-0.4-0.9-1.1-1.2-2.1-1c-0.4,0.1-0.8,0.5-0.8,0.9c0,0.3,0.2,0.6,0.5,0.6h0.4C84.4,63.8,84.7,63.9,84.9,64
		 M123.4,62.6l-1.3-0.2c-0.5-0.1-0.9,0.2-1,0.6c-0.1,0.5,0.2,0.9,0.6,1c0.8,0.3,1.5,0.1,2-0.5c0.2-0.2,0.2-0.6,0-0.8
		C123.6,62.6,123.5,62.6,123.4,62.6"/>
	<path vector-effect="non-scaling-stroke" class="st1" d="M77.3,107.2c2.1-0.2,3.5-2.7,3.2-5.4l0,0c-0.3-2.7-2.3-4.8-4.4-4.5
		c-2.1,0.2-3.5,2.7-3.2,5.4l0,0C73.3,105.4,75.2,107.4,77.3,107.2 M110.1,107.3c1.9,0,3.5-2.3,3.5-5.1l0,0c0-2.8-1.5-5.1-3.5-5.1
		c-1.9,0-3.5,2.3-3.5,5.1l0,0C106.6,105,108.2,107.3,110.1,107.3 M142.6,101.3h5c0.3,0,0.6-0.3,0.6-0.6v-0.2c0-1.8-1.3-3.2-3-3.2
		H145c-1.7,0-3,1.4-3,3.2v0.2C142,101,142.3,101.3,142.6,101.3 M197.8,107.2c2.1-0.2,3.5-2.7,3.2-5.4c-0.3-2.8-2.3-4.8-4.4-4.6
		c-2.1,0.2-3.6,2.7-3.2,5.4l0,0C193.8,105.4,195.7,107.4,197.8,107.2 M207.5,98.8v6.7c0,0.8,0.7,1.5,1.5,1.5l0,0h1.6
		c2,0,3.6-2.1,3.6-4.7v-0.5c0-2.6-1.7-4.6-3.7-4.6l0,0h-1.6C208.2,97.3,207.5,98,207.5,98.8L207.5,98.8"/>
</g>
<path class="st5" d="M0-14.7h220v169H0V-14.7z M89,6.2c0-0.5-0.4-0.9-0.8-0.9l0,0h-4.6c-0.5,0-0.9,0.4-0.9,0.8l-0.1,4.6
	c0,0.5,0.4,0.9,0.8,0.9l4.5,0.1c0.5,0,0.9-0.4,0.9-0.8L89,6.2L89,6.2z M98,15.4c0.3,0,0.5,0.2,0.5,0.5v3c0,0.3,0.2,0.5,0.5,0.5l0,0
	h3.3c0.3,0,0.5-0.2,0.5-0.5l0,0v-3.2c0-0.3-0.2-0.5-0.5-0.5L99.2,15c-0.3,0-0.5-0.2-0.5-0.5v-5c0-0.3-0.2-0.5-0.5-0.5l0,0H93
	c-0.3,0-0.5,0.2-0.5,0.5l0,0v5.2c0,0.3,0.2,0.5,0.5,0.5L98,15.4z M104.3,10.8c0-0.9-0.7-1.6-1.6-1.6s-1.6,0.7-1.6,1.6
	s0.7,1.6,1.6,1.6S104.3,11.7,104.3,10.8z M86.3,24.5l-10.6,2.2c-1.5,0.3-2.2,1.2-2.2,2.8l0.9,20.8c0,1.3,1.1,2.2,2.3,2.2l43.7-1.3
	c1.9-0.1,3.4-1.6,3.3-3.5c0-0.1,0-0.1,0-0.2c-0.6-8.5-1.3-16.8-1.9-25c-0.1-1.1-0.4-2.1-0.8-3.1c-0.1-0.3-0.4-0.5-0.8-0.6
	c-1.1-0.2-2.3-0.2-3.8,0c-7.7,1.4-15.5,2.9-23.2,4.5c-0.3-0.8-0.3-1.6-0.1-2.4c0.1-0.3,0.4-0.4,0.7-0.4c0.1,0,0.1,0,0.1,0.1
	c0.8,0.5,1.4,0.4,2-0.4c0.5-0.8,0.4-1.8-0.4-2.4c-0.3-0.2-0.6-0.3-1-0.3c-1.5,0-2.2,0.7-2.1,2.3c0,0.3-0.2,0.5-0.5,0.6l0,0h-4.5
	c-0.3,0-0.5-0.2-0.5-0.5v-4c0-0.5-0.2-0.8-0.8-0.8h-4.6c-0.4,0-0.6,0.2-0.6,0.5L81,20c0,0.4,0.3,0.8,0.7,0.8l0,0h4
	c0.3,0,0.6,0.1,0.8,0.4C87.1,22.2,87,23.3,86.3,24.5z M135.8,75c0.2,0,0.3,0.1,0.5,0.2c0.3,0.2,0.4,0.4,0.5,0.8
	c0.8,5.4,12.1,6.6,11.8,0c0-0.3-0.1-0.6-0.4-0.8c-3.4-3.7-7.3-4-11.8-0.8c-4.1,0.2-7.4-0.3-10.1-1.3c-1.8-0.7-1.9-1.5-0.2-2.5
	c5.6-3.2,11-6.2,16.3-9.1c1.1-0.6,2-1.3,2.8-2.2c0.2-0.2,0.3-0.6,0.2-0.9c-1.3-5.2-17.9-3.7-22-3.7c-16.4-0.1-33.1-0.1-50.1-0.1
	c-1,0-1.8,0.8-1.8,1.9c0,0.1,0,0.3,0,0.4l1.8,8.7c0.2,1,0.9,1.6,1.9,1.6h47.7c1.2,0,2.2-0.8,2.5-2l1.8-8.7c0.1-0.3,0.3-0.6,0.6-0.6
	c5.3-0.9,10.5-0.4,15.5,1.4c0.7,0.3,1.1,1.1,0.9,1.8c-0.1,0.3-0.3,0.6-0.6,0.8c-6.3,3.5-13.9,6.7-19.2,11.4
	c-0.6,0.6-0.7,1.6-0.1,2.2c0.2,0.2,0.4,0.4,0.7,0.5C128.3,74.8,131.9,75.2,135.8,75L135.8,75z M180.9,97.3l0.3-5.3
	c0-0.4-0.2-0.7-0.6-0.7h-0.9c-0.3,0-0.5,0.2-0.5,0.5v15.4c0,0.3,0.2,0.5,0.5,0.5h0.8c0.4,0,0.6-0.2,0.6-0.6v-7.5
	c0-0.4,0.2-0.7,0.6-0.9l2.5-1.2c0.9-0.4,2-0.1,2.4,0.8c0.1,0.3,0.2,0.5,0.2,0.8v8c0,0.3,0.2,0.5,0.5,0.5h1c0.4,0,0.6-0.2,0.6-0.6
	l-0.3-9c0-0.6-0.4-1.1-0.9-1.3c-2.1-0.9-4-0.6-5.7,0.9C181.2,98.4,180.9,98.3,180.9,97.3L180.9,97.3z M26,98.8l-4.4-6.2
	c-0.2-0.3-0.6-0.5-1-0.5h-0.7c-0.7,0-0.9,0.3-0.4,0.9l5.3,7.1c0.2,0.2,0.3,0.5,0.3,0.8v6.3c0,0.3,0.3,0.6,0.6,0.6h0.9
	c0.4,0,0.6-0.2,0.6-0.6c-0.2-3.2-0.6-6.1,1.3-8.9c1.4-2,2.8-3.9,4.2-5.8c0.2-0.2,0.1-0.5-0.1-0.7c-0.2-0.1-0.4-0.1-0.5,0l-0.6,0.3
	c-0.2,0.1-0.4,0.3-0.6,0.5l-4.2,6.1C26.4,99.1,26.2,99.1,26,98.8z M63.1,107c-8.4-2.6-7.1-18,5.4-13c0.5,0.2,0.6,0.1,0.3-0.4
	c-0.6-0.9-1.4-1.5-2.5-1.7c-15-2.8-14.1,20,1.3,15.7c0.4-0.1,0.6-0.3,0.8-0.5c0.2-0.4,0.3-0.7,0.3-1.1c-0.1-0.4-0.3-0.5-0.6-0.2
	C66.6,107.1,64.9,107.5,63.1,107z M171.1,93.1c1.4-0.7,2.5-0.4,3.2,0.9c0.1,0.2,0.4,0.3,0.6,0.2c0.1,0,0.1-0.1,0.2-0.2
	c0.3-0.6,0.2-1.1-0.5-1.6c-4.7-2.8-8.4,3.1-4.5,6.7c1.5,1.4,2.8,2.9,3.8,4.5c0.7,1,0.4,2.4-0.6,3c-0.3,0.2-0.6,0.3-1,0.3
	c-1.5,0.2-2.7-0.4-3.5-1.8c-0.2-0.3-0.3-0.3-0.5,0c-0.5,0.8-0.3,1.5,0.5,2c2.2,1.4,4.2,1.4,5.9-0.2c5.6-5-6.4-8.9-4.3-13.3
	C170.5,93.5,170.8,93.3,171.1,93.1L171.1,93.1z M11.1,101.2l4.8,6.3c0.2,0.2,0.4,0.3,0.6,0.3H18c0.4,0,0.5-0.2,0.3-0.5l-5.6-7.2
	c-0.4-0.5-0.4-1.1,0-1.6l4.9-5.9c0.2-0.3,0.2-0.5-0.2-0.6c-0.5-0.1-1,0.1-1.4,0.6c-1.4,1.8-2.8,3.6-4.3,5.3c-0.2,0.3-0.5,0.3-0.7,0
	c-1.5-1.8-3.7-6.8-6.3-5.7c-0.2,0.1-0.2,0.2-0.1,0.4l5.2,6.9c0.2,0.3,0.2,0.6,0,0.9l-5.7,7.4C4,108,4,108.2,4.2,108.3
	c0.1,0,0.1,0.1,0.2,0.1c0.4,0,0.7-0.2,1-0.5c1.8-2.2,3.6-4.4,5.1-6.6C10.7,101.1,10.9,101,11.1,101.2
	C11.1,101.1,11.1,101.2,11.1,101.2z M36.7,106.9c-0.2,0-0.3-0.1-0.3-0.3c0-0.1,0-0.1,0.1-0.2l10.4-14c0.1-0.1,0.1-0.3-0.1-0.4
	c-0.1,0-0.1-0.1-0.2-0.1H34.5c-0.2,0-0.3,0.1-0.3,0.3v0.7c0,0.2,0.1,0.3,0.3,0.3l0,0l8.9-0.4c0.2,0,0.3,0.1,0.3,0.3
	c0,0.1,0,0.1-0.1,0.2l-10.2,14c-0.1,0.1-0.1,0.3,0.1,0.4c0,0,0.1,0.1,0.2,0.1h13.5c0.2,0,0.3-0.1,0.3-0.3c0-0.1,0-0.2-0.1-0.2
	l-0.8-0.8c-0.1-0.1-0.1-0.1-0.2-0.1L36.7,106.9L36.7,106.9z M135.6,107.1c-0.7,0.2-1.4-0.2-1.6-0.9c0-0.1-0.1-0.2-0.1-0.4v-7.9
	c0-0.4,0.2-0.6,0.6-0.6l2.7,0.1c0.1,0,0.2,0,0.2-0.2l0.1-0.2c0.2-0.5,0.1-0.7-0.5-0.7h-2.6c-0.4,0-0.6-0.2-0.6-0.6v-2.4
	c0-0.3-0.2-0.5-0.5-0.5h-1c-0.3,0-0.5,0.2-0.5,0.5v2.3c0,0.3-0.2,0.6-0.5,0.6l-0.9,0.2c-0.2,0-0.3,0.2-0.2,0.4
	c0,0.1,0.2,0.2,0.3,0.2c1,0,1.5,0.5,1.4,1.5c-0.2,2.9-0.1,5.5,0.4,8c0.1,0.3,0.2,0.6,0.5,0.8c1.1,0.7,2.4,0.9,3.7,0.7
	c0.6-0.1,0.9-0.4,1-0.7c0.1-0.2,0-0.5-0.3-0.6c-0.1,0-0.2,0-0.3,0L135.6,107.1L135.6,107.1z M82.7,102.2c0-3.3-2.6-5.9-5.9-5.9l0,0
	c-3.3,0-5.9,2.6-5.9,5.9l0,0c0,3.3,2.6,5.9,5.9,5.9l0,0C80,108.1,82.7,105.4,82.7,102.2L82.7,102.2z M87.3,97.4
	c-0.1-0.6-0.4-0.9-0.8-1.1c-0.6-0.2-1.2,0.1-1.4,0.7c0,0.1-0.1,0.2,0,0.4l0.3,9.9c0,0.3,0.2,0.5,0.5,0.5h0.7c0.3,0,0.5-0.2,0.5-0.5
	l0.1-7.9c0-0.3,0.2-0.5,0.4-0.7l2.5-1c0.9-0.4,1.9,0.1,2.3,1c0.1,0.2,0.1,0.4,0.1,0.6l0.1,7.9c0,0.3,0.2,0.5,0.5,0.5h1
	c0.3,0,0.5-0.2,0.5-0.5v-7.8c0-0.3,0.1-0.5,0.4-0.6l2.2-1.3c0.9-0.5,2-0.2,2.5,0.7c0.2,0.3,0.2,0.6,0.2,0.9v7.9
	c0,0.4,0.3,0.7,0.7,0.7l0,0h0.7c0.3,0,0.5-0.2,0.5-0.5c0-3.9,1.7-14.8-6.7-9.4c-0.3,0.2-0.6,0.2-0.9-0.1c-1.9-1.8-4-1.8-6.2-0.1
	C87.6,97.9,87.4,97.8,87.3,97.4z M107.8,107.7c6.2,1.9,10.7-5.1,6.4-10c-1.8-2-5.9-1.2-8.5-1.3c-0.4,0-0.6,0.2-0.6,0.5l0.1,15.7
	c0,0.5,0.4,0.8,0.9,0.8h0.1c0.8-0.1,1.1-0.6,0.9-1.4c-0.3-1.3-0.3-2.7,0-4C107.2,107.7,107.4,107.6,107.8,107.7z M121.3,106.4
	c-1.5-2.1-0.8-7.7-0.7-9.5c0-0.6-0.2-0.8-0.8-0.7l-1.1,0.3c-0.2,0.1-0.4,0.3-0.4,0.5c0.3,4.6-1.8,13.9,6.8,9.6
	c0.3-0.2,0.6-0.1,0.7,0.3l0.3,0.6c0.2,0.5,0.8,0.7,1.4,0.5c0.4-0.2,0.6-0.6,0.6-1c-0.3-3.3-0.3-6.5,0.1-9.8c0-0.4-0.1-0.6-0.5-0.6
	h-0.8c-0.4,0-0.6,0.2-0.6,0.6l-0.2,7.8c0,0.4-0.2,0.7-0.7,0.8l-3.2,0.9C121.9,106.8,121.5,106.7,121.3,106.4L121.3,106.4z M149,106
	c-3.1,2.3-7,0.7-6.9-3.3c0-0.3,0.1-0.4,0.4-0.4h7c0.5,0,0.9-0.4,0.9-0.9v-0.1c-0.9-7.2-10.5-6.1-10.6,0.5c-0.1,4.9,7.3,9.2,9.6,4.5
	C149.8,105.7,149.6,105.6,149,106z M154.5,96.8c-0.4-0.3-0.9-0.4-1.4-0.3c-0.3,0-0.5,0.2-0.5,0.5l0.1,10.2c0,0.3,0.2,0.5,0.5,0.6
	l0.7,0.2c0.4,0.1,0.8-0.2,0.8-0.6v-0.1v-8c0-0.3,0.1-0.5,0.4-0.7c1.2-0.8,2.6-1,3.9-0.6c0.4,0.1,0.6,0,0.7-0.4
	c0.1-0.8-0.3-1.2-1.3-1.2c-0.3,0-0.6,0.1-0.9,0.2c-0.7,0.3-1.4,0.5-2.1,0.5C155.1,97.1,154.8,97,154.5,96.8L154.5,96.8z
	 M203.2,102.2c0-3.3-2.6-5.9-5.9-5.9s-5.9,2.6-5.9,5.9s2.6,5.9,5.9,5.9S203.2,105.4,203.2,102.2z M208.2,107.7
	c9.9,2.5,11.5-12.2,1.4-11.2c-1.1,0.1-2.2,0-3.3-0.2c-0.2-0.1-0.5,0.1-0.5,0.3v0.1v16.2c0,0.3,0.1,0.4,0.4,0.4h1.2
	c0.4,0,0.5-0.2,0.5-0.5l-0.3-4.4C207.4,107.8,207.6,107.6,208.2,107.7z"/>
<path class="st6" d="M83.6,5.3l4.5,0.1c0.5,0,0.8,0.4,0.8,0.9l0.1,4.4c0,0.5-0.4,0.8-0.9,0.8l-4.5-0.1c-0.5,0-0.8-0.4-0.8-0.9
	l0.1-4.6C82.8,5.6,83.2,5.3,83.6,5.3z"/>
<path class="st7" d="M98,15.4l-5-0.1c-0.3,0-0.5-0.2-0.5-0.5V9.6c0-0.3,0.2-0.5,0.5-0.5l0,0h5.3c0.3,0,0.5,0.2,0.5,0.5l0,0v5
	c0,0.3,0.2,0.5,0.5,0.5l3.1,0.2c0.3,0,0.5,0.2,0.5,0.5V19c0,0.3-0.2,0.5-0.5,0.5l0,0H99c-0.3,0-0.5-0.2-0.5-0.5l0,0v-3
	C98.5,15.6,98.3,15.4,98,15.4z"/>
<circle class="st6" cx="102.7" cy="10.8" r="1.6"/>
<path class="st8" d="M93.2,23.3c-0.3,0.9-0.4,1.9-0.2,2.8c0.1,0.3,0.3,0.5,0.6,0.5l2.7,0.1c0.4,0,0.6,0.3,0.6,0.7l0,0l-0.2,2.5
	c0,0.5,0.2,0.7,0.6,0.7l6.4-0.3c0.6,0,1.2,0.5,1.2,1.1c0,0,0,0,0,0.1v6.7c0,0.5-0.2,0.8-0.8,0.8h-6.6c-0.4,0-0.7,0.3-0.7,0.7v2.7
	c0,0.4-0.3,0.7-0.6,0.7l0,0h-3c-0.5,0-0.7-0.2-0.7-0.7v-2.9c0-0.5,0.2-0.7,0.7-0.7h3c0.3,0,0.4-0.1,0.4-0.4v-6.5
	c0-0.5-0.2-0.7-0.7-0.8l-2.8-0.4c-0.4-0.1-0.6-0.3-0.6-0.8l0.2-2.2c0-0.3-0.2-0.6-0.5-0.6l-2.6-0.4c-0.4-0.1-0.8,0.2-0.8,0.6v0.1
	v4.9c0,0.3-0.3,0.6-0.6,0.6L83,33c-0.4,0-0.7-0.3-0.7-0.7l0,0l0.1-4.4c0-0.4,0.3-0.8,0.7-0.8c3.1-0.4,4-1.2,3-2.4
	c0.8-1.2,0.8-2.3,0.2-3.3c-0.2-0.3-0.4-0.4-0.8-0.4h-4c-0.4,0-0.8-0.3-0.8-0.8l0,0l0.2-4.4c0-0.4,0.2-0.5,0.6-0.5h4.6
	c0.5,0,0.8,0.2,0.8,0.8v4c0,0.3,0.2,0.5,0.5,0.5H92c0.3,0,0.5-0.2,0.5-0.5l0,0c-0.1-1.5,0.6-2.3,2.1-2.3c0.9,0,1.7,0.8,1.7,1.7
	c0,0.3-0.1,0.7-0.3,1c-0.5,0.8-1.2,0.9-2,0.4c-0.2-0.2-0.6-0.1-0.7,0.2l-0.1,0.1C93,21.7,93,22.5,93.2,23.3L93.2,23.3z"/>
<path class="st7" d="M86.3,24.5c1.1,1.2,0.1,2-3,2.4c-0.4,0-0.7,0.4-0.7,0.8l-0.1,4.4c0,0.4,0.3,0.7,0.7,0.7l0,0l5.2-0.1
	c0.3,0,0.6-0.3,0.6-0.6v-4.9c0-0.4,0.3-0.7,0.7-0.7h0.1l2.6,0.4c0.3,0,0.5,0.3,0.5,0.6l-0.2,2.2c0,0.4,0.2,0.7,0.6,0.8l2.8,0.4
	c0.4,0.1,0.7,0.3,0.7,0.8v6.5c0,0.3-0.1,0.4-0.4,0.4h-3c-0.4,0-0.7,0.2-0.7,0.7v2.9c0,0.5,0.2,0.7,0.7,0.7h3c0.4,0,0.6-0.3,0.6-0.7
	l0,0v-2.7c0-0.4,0.3-0.7,0.7-0.7h6.6c0.5,0,0.8-0.2,0.8-0.8v-6.7c0-0.6-0.5-1.2-1.2-1.2c0,0,0,0-0.1,0l-6.4,0.3
	c-0.5,0-0.7-0.2-0.6-0.7l0.2-2.5c0-0.4-0.2-0.7-0.6-0.7l0,0l-2.7-0.1c-0.3,0-0.5-0.2-0.6-0.5c-0.2-0.9-0.2-1.9,0.2-2.8
	c7.8-1.6,15.5-3.1,23.2-4.5c1.5-0.3,2.7-0.3,3.8,0c0.3,0.1,0.6,0.3,0.8,0.6c0.4,1,0.7,2.1,0.8,3.1c0.6,8.2,1.3,16.5,1.9,25
	c0.1,1.9-1.3,3.5-3.2,3.7c-0.1,0-0.1,0-0.2,0l-43.7,1.3c-1.3,0-2.3-0.9-2.3-2.2l-0.9-20.9c-0.1-1.5,0.7-2.5,2.2-2.8
	C75.7,26.7,86.3,24.5,86.3,24.5z"/>
<path class="st6" d="M136.4,74.4c-0.1,0.2-0.3,0.4-0.6,0.7c-3.9,0.2-7.4-0.2-10.8-1.3c-0.8-0.3-1.3-1.1-1-2c0.1-0.3,0.2-0.5,0.5-0.7
	c5.3-4.7,13-7.8,19.2-11.4c0.7-0.4,0.9-1.3,0.5-1.9c-0.2-0.3-0.4-0.5-0.8-0.6c-5.1-1.8-10.2-2.3-15.5-1.4c-0.3,0.1-0.6,0.3-0.6,0.6
	l-1.8,8.7c-0.2,1.2-1.3,2-2.5,2H75.3c-1.1,0-1.7-0.5-1.9-1.6l-1.8-8.7c-0.2-1,0.4-2,1.4-2.2c0.1,0,0.3,0,0.4,0c17,0,33.6,0,50.1,0.1
	c4.1,0,20.7-1.5,22,3.7c0.1,0.3,0,0.6-0.2,0.9c-0.8,0.9-1.8,1.7-2.8,2.2c-5.3,2.9-10.8,5.9-16.3,9.1c-1.7,1-1.6,1.8,0.2,2.5
	C128.9,74.1,132.3,74.5,136.4,74.4L136.4,74.4z M75.4,58l-0.2,0.7c-0.1,0.3,0.1,0.7,0.5,0.7c0.1,0,0.1,0,0.2,0l1.2-0.2
	c0.3,0,0.5-0.3,0.5-0.6l0,0l-0.2-2c-0.1-0.6-0.6-1-1.2-1c-0.1,0-0.3,0.1-0.4,0.1c-0.7,0.4-0.9,0.9-0.5,1.5
	C75.4,57.5,75.5,57.7,75.4,58z M80.3,57.6l1.1-0.4c0.4-0.1,0.5-0.6,0.4-0.9c-0.1-0.2-0.3-0.4-0.5-0.4l-1.5-0.2
	c-0.3-0.1-0.6,0.1-0.6,0.4c0,0.1,0,0.1,0,0.2l0.3,2.8c0,0.3,0.3,0.5,0.6,0.5l1.3-0.1c0.3,0,0.6-0.3,0.6-0.6s-0.3-0.6-0.6-0.6l0,0
	h-0.9c-0.1,0-0.2-0.1-0.2-0.3C80.1,57.7,80.2,57.6,80.3,57.6L80.3,57.6z M86,56.4c-0.1-0.5-0.7-0.9-1.4-0.8l0,0
	c-0.7,0.1-1.2,0.6-1.2,1.2c0.1,0.5,0.7,0.9,1.4,0.8l0,0C85.6,57.5,86.1,57,86,56.4z M87.8,57.1l1.5,0.5c0.4,0.1,0.6,0,0.7-0.4l0.2-1
	c0-0.3-0.2-0.6-0.5-0.7c-0.1,0-0.1,0-0.2,0L88,55.8c-0.4,0.1-0.6,0.4-0.5,0.8C87.4,56.9,87.6,57.1,87.8,57.1z M106.4,55.6l-2.1,0.3
	c-0.3,0-0.4,0.3-0.4,0.5c0,0.1,0.1,0.2,0.1,0.3c0.9,1,1.8,1.1,2.9,0.5c0.4-0.2,0.5-0.8,0.3-1.2C107,55.7,106.7,55.5,106.4,55.6z
	 M124,56.4c0-0.5-0.7-0.9-1.5-0.9c-0.9,0-1.6,0.3-1.6,0.8s0.7,0.9,1.5,0.9C123.3,57.2,124,56.9,124,56.4z M92.6,57.4l1.2-0.2
	c0.4,0,0.7-0.4,0.6-0.8c0-0.3-0.2-0.5-0.5-0.6c-1-0.4-1.7-0.2-2,0.7c-0.1,0.3,0.1,0.7,0.4,0.8C92.4,57.4,92.5,57.4,92.6,57.4z
	 M98.8,56.4c0.1-0.3-0.1-0.5-0.3-0.6h-0.1h-2c-0.4,0-0.8,0.3-0.8,0.8c0,0.3,0.2,0.6,0.5,0.7C97.5,58,98.4,57.7,98.8,56.4z
	 M100.8,57.6c0.8-0.2,1.4-0.4,1.9-0.8c0.2-0.2,0.3-0.5,0.1-0.7c-0.1-0.1-0.2-0.2-0.3-0.2c-0.7-0.2-1.5-0.2-2.2-0.1
	c-0.5,0.1-0.7,0.6-0.6,1.1C99.9,57.4,100.3,57.7,100.8,57.6z M108.3,55.9c-0.2,0-0.3,0.1-0.2,0.3c0.5,1.3,1.3,1.6,2.6,1.1
	c0.4-0.2,0.6-0.7,0.4-1.1c-0.1-0.3-0.5-0.5-0.8-0.5L108.3,55.9z M114.1,57.4c0.4,0,0.8,0,1-0.1c0.4-0.1,0.6-0.6,0.5-1
	c-0.1-0.3-0.3-0.5-0.6-0.5h-1.8c-0.5,0-0.8,0.4-0.8,0.9c0,0.4,0.3,0.7,0.6,0.8C113.6,57.6,113.9,57.5,114.1,57.4z M120,56.6
	c0-0.5-0.7-0.9-1.6-0.9l0,0c-0.9,0-1.6,0.3-1.6,0.8l0,0c0,0.5,0.7,0.9,1.6,0.9C119.3,57.4,120,57.1,120,56.6L120,56.6z M104.1,59.1
	c0.6,0.4,1.3,0.6,2.1,0.5c0.4,0,0.8-0.5,0.7-0.9c0-0.4-0.5-0.8-0.9-0.7c-0.7,0.1-1.3,0.3-1.9,0.6C103.9,58.8,103.9,58.9,104.1,59.1z
	 M84.9,58.2c-0.5,0-0.9,0.1-1.3,0.2c-0.2,0.1-0.4,0.3-0.3,0.5s0.2,0.3,0.4,0.3h1.7c0.3,0,0.6-0.3,0.6-0.6c0-0.2-0.1-0.4-0.3-0.5
	C85.3,58,85.1,58,84.9,58.2z M89.2,58.2c-0.6-0.1-1.1,0-1.5,0.4c-0.4,0.5-0.3,0.7,0.3,0.7h1.8c0.3,0,0.5-0.2,0.5-0.5
	c0-0.2-0.1-0.4-0.3-0.5C89.6,58.1,89.3,58,89.2,58.2z M98.2,59.6c0.6,0.4,0.8,0.3,0.6-0.5l-0.4-1.2c-0.2-0.6-0.8-0.9-1.3-0.7
	c-0.2,0.1-0.4,0.2-0.5,0.3c-0.5,0.7-0.7,1.2-0.5,1.6c0.1,0.2,0.3,0.2,0.4,0.2C97.1,59.2,97.7,59.2,98.2,59.6z M100.8,58.2
	c-0.2-0.2-0.4-0.2-0.7,0.1c-0.2,0.2-0.3,0.6-0.1,0.8c0.1,0.1,0.3,0.2,0.4,0.2h2.2c0.2,0,0.4-0.2,0.4-0.4c0-0.2-0.1-0.3-0.3-0.4
	C102.2,58.2,101.5,58.1,100.8,58.2z M111,58.6c-0.1-0.4-0.7-0.6-1.5-0.4l0,0c-0.8,0.1-1.3,0.5-1.3,0.9l0,0c0.1,0.4,0.7,0.6,1.5,0.4
	C110.5,59.3,111.1,58.9,111,58.6z M113.7,58.3c-0.3,0-0.5,0.1-0.7,0.3c-0.3,0.5-0.2,0.7,0.4,0.7h1.3c0.4,0,0.6-0.3,0.6-0.7
	c0-0.2-0.1-0.3-0.2-0.4c-0.2-0.2-0.4-0.3-0.7-0.2C114,58.2,113.8,58.3,113.7,58.3z M118.1,58c-0.3-0.1-0.7,0-1,0.2s-0.3,0.6-0.1,0.8
	c0.1,0.2,0.3,0.2,0.5,0.2h1.7c0.3,0,0.5-0.2,0.5-0.5c0-0.1,0-0.2-0.1-0.3c-0.1-0.2-0.3-0.3-0.6-0.3C118.6,58.1,118.2,58.1,118.1,58z
	 M124,58.7c-0.8-0.5-1.7-0.7-2.8-0.6c-0.3,0-0.6,0.2-0.6,0.5s0.2,0.6,0.5,0.6l2.6,0.2C124.9,59.6,125,59.3,124,58.7z M94,59.4
	c0.3,0.3,0.4,0.2,0.6-0.4c0.1-0.3-0.2-0.7-0.5-0.7c-0.1,0-0.1,0-0.2,0l-1.7,0.1c-0.3,0-0.5,0.2-0.4,0.5s0.2,0.4,0.4,0.4h1.5
	C93.8,59.3,93.9,59.3,94,59.4z M77.2,60.2l-1.7-0.1c-0.3,0-0.5,0.2-0.5,0.5l0,0v1.3c-0.1,1.3,0.4,2.4,1,2.4h0.4c0.6,0,1.2-1,1.3-2.3
	l0,0l0.1-1.3C77.7,60.4,77.5,60.2,77.2,60.2C77.3,60.2,77.3,60.2,77.2,60.2z M79.4,62.5c-0.4,0.7-0.3,1.4,0.5,1.9
	c0.4,0.3,0.9,0.2,1.2-0.2c0.1-0.1,0.1-0.3,0.2-0.4l0.3-2.9c0-0.4-0.1-0.6-0.5-0.6h-1.4c-0.3,0-0.5,0.2-0.5,0.5c0,0.1,0,0.1,0,0.2
	l0.3,0.8C79.6,62,79.5,62.3,79.4,62.5L79.4,62.5z M83.9,60.3c-0.3,0-0.4,0.1-0.4,0.4V61c0,0.3,0.2,0.5,0.4,0.5l1.2,0.2
	c0.4,0.1,0.6-0.1,0.6-0.5v-0.4c0-0.3-0.2-0.5-0.5-0.5C85.3,60.3,83.9,60.3,83.9,60.3z M90.4,60.8c0-0.4-0.7-0.7-1.5-0.6
	s-1.4,0.5-1.4,0.9s0.7,0.7,1.5,0.6l0,0C89.8,61.6,90.4,61.2,90.4,60.8L90.4,60.8z M92.1,61.2c0.8,0.5,1.6,0.5,2.4,0.1
	c0.3-0.2,0.4-0.6,0.3-0.9c-0.1-0.2-0.4-0.4-0.7-0.3l-1.8,0.3c-0.3,0-0.4,0.3-0.4,0.5C91.9,61,91.9,61.2,92.1,61.2z M98.7,60.9
	c0-0.4-0.6-0.8-1.4-0.9l0,0c-0.8,0-1.4,0.3-1.5,0.7l0,0c0,0.4,0.6,0.8,1.4,0.9l0,0C98,61.7,98.7,61.3,98.7,60.9L98.7,60.9L98.7,60.9
	z M107,60.8c0-0.4-0.7-0.7-1.6-0.6c-0.8,0.1-1.5,0.4-1.4,0.8c0,0.4,0.7,0.7,1.6,0.6C106.4,61.5,107.1,61.1,107,60.8z M113.4,62.2
	l-0.4,1c-0.2,0.5-0.1,0.8,0.5,0.9c0.9,0.2,1.6-0.2,2.1-1c0.1-0.2,0-0.4-0.2-0.5l-0.7-0.4c-0.2-0.1-0.3-0.4-0.1-0.5
	c0.1-0.1,0.2-0.2,0.3-0.2c0.3,0,0.4-0.1,0.4-0.3c0.1-0.5-0.1-0.8-0.7-0.8h-1.1c-0.1,0-0.3,0.1-0.3,0.2c-0.3,0.5-0.3,1,0.1,1.2
	C113.5,61.8,113.5,62,113.4,62.2L113.4,62.2z M119.6,60.2l-1.9-0.2c-0.3,0-0.6,0.2-0.7,0.5v0.1l0.2,3c0,0.4,0.3,0.7,0.7,0.6
	c0,0,0,0,0.1,0l1.1-0.2c0.6-0.1,0.7-0.4,0.4-0.9c-0.5-0.9-0.4-1.7,0.3-2.4c0.1-0.1,0.1-0.3,0-0.5C119.7,60.3,119.7,60.2,119.6,60.2z
	 M100.2,61.1c0.7,0.4,1.4,0.5,2.2,0.4c0.3-0.1,0.5-0.4,0.4-0.7c-0.1-0.3-0.3-0.4-0.6-0.5h-1.8c-0.3,0-0.5,0.2-0.5,0.5
	C100,60.9,100.1,61.1,100.2,61.1z M111,60.9c0-0.4-0.6-0.6-1.4-0.6l0,0c-0.8,0-1.4,0.3-1.4,0.7l0,0c0,0.4,0.6,0.6,1.4,0.6l0,0
	C110.4,61.5,111,61.2,111,60.9L111,60.9z M121.7,61.6l1.8-0.4c0.3,0,0.4-0.3,0.4-0.6c0-0.2-0.2-0.4-0.5-0.4h-2.1
	c-0.2,0-0.4,0.2-0.4,0.4l0,0c0,0.1,0,0.2,0,0.3c0,0.3,0.2,0.6,0.6,0.6C121.6,61.6,121.7,61.6,121.7,61.6z M111.2,63.1
	c0-0.5-0.4-0.8-0.8-0.8l0,0l-21.9,0.1c-0.5,0-0.8,0.4-0.8,0.8l0,0v0.1c0,0.5,0.4,0.8,0.8,0.8l0,0l21.9-0.1
	C110.8,64,111.2,63.6,111.2,63.1L111.2,63.1L111.2,63.1z M84.9,64c0.3,0.2,0.7,0.2,1,0c0.3-0.1,0.4-0.4,0.3-0.7
	c-0.4-0.9-1.1-1.2-2.1-1c-0.4,0.1-0.8,0.5-0.8,0.9c0,0.3,0.2,0.6,0.5,0.6h0.4C84.4,63.8,84.7,63.9,84.9,64z M123.4,62.6l-1.3-0.2
	c-0.5-0.1-0.9,0.2-1,0.6c-0.1,0.5,0.2,0.9,0.6,1c0.8,0.3,1.5,0.1,2-0.5c0.2-0.2,0.2-0.6,0-0.8C123.6,62.6,123.5,62.6,123.4,62.6z"/>
<path class="st9" d="M75.3,57.2c-0.4-0.6-0.2-1.1,0.5-1.5c0.5-0.3,1.2-0.1,1.5,0.4c0.1,0.1,0.1,0.3,0.1,0.4l0.2,2
	c0,0.3-0.2,0.6-0.5,0.6l0,0L76,59.4c-0.3,0-0.6-0.2-0.7-0.5c0-0.1,0-0.1,0-0.2l0.2-0.7C75.5,57.7,75.4,57.5,75.3,57.2z M80.3,58h0.9
	c0.3,0,0.6,0.3,0.6,0.6s-0.2,0.7-0.5,0.7L80,59.4c-0.3,0-0.6-0.2-0.6-0.5l-0.3-2.8c0-0.3,0.2-0.6,0.5-0.6c0.1,0,0.1,0,0.2,0l1.5,0.2
	c0.4,0.1,0.6,0.4,0.6,0.8c0,0.2-0.2,0.4-0.4,0.5l-1.1,0.4c-0.1,0.1-0.2,0.2-0.1,0.3C80.2,58,80.2,58,80.3,58L80.3,58z"/>
<ellipse transform="matrix(0.989 -0.1478 0.1478 0.989 -7.4316 13.1393)" class="st9" cx="84.7" cy="56.6" rx="1.3" ry="1"/>
<path class="st9" d="M87.8,57.1c-0.3-0.1-0.5-0.5-0.4-0.8c0.1-0.2,0.3-0.4,0.5-0.4l1.5-0.3c0.3-0.1,0.6,0.1,0.7,0.5
	c0,0.1,0,0.1,0,0.2l-0.2,1c-0.1,0.4-0.3,0.5-0.7,0.4C89.3,57.6,87.8,57.1,87.8,57.1z M106.4,55.6c0.5-0.1,0.9,0.2,0.9,0.7
	c0,0.3-0.1,0.7-0.4,0.8c-1.1,0.7-2,0.5-2.9-0.5c-0.2-0.2-0.2-0.5,0-0.7c0.1-0.1,0.2-0.1,0.3-0.1L106.4,55.6z"/>
<ellipse transform="matrix(4.710597e-02 -0.9989 0.9989 4.710597e-02 60.4855 175.9087)" class="st9" cx="122.4" cy="56.3" rx="0.8" ry="1.6"/>
<path class="st9" d="M91.9,56.6c0.3-0.9,1-1.1,2-0.7c0.4,0.1,0.6,0.5,0.4,0.9c-0.1,0.2-0.3,0.4-0.6,0.5l-1.2,0.2
	c-0.3,0-0.7-0.2-0.7-0.5C91.9,56.8,91.9,56.7,91.9,56.6z M98.8,56.4c-0.4,1.3-1.3,1.6-2.8,0.9c-0.4-0.2-0.6-0.7-0.4-1
	c0.1-0.3,0.4-0.5,0.7-0.5h2C98.6,55.8,98.8,56,98.8,56.4C98.8,56.3,98.8,56.4,98.8,56.4z M100.8,57.6c-0.5,0.1-0.9-0.2-1-0.7
	c-0.1-0.4,0.2-0.9,0.6-1c0.7-0.2,1.4-0.2,2.2,0.1c0.3,0.1,0.4,0.3,0.3,0.6c0,0.1-0.1,0.2-0.2,0.3C102.2,57.1,101.6,57.4,100.8,57.6z
	 M108.3,55.9l2.1-0.2c0.5,0,0.8,0.3,0.9,0.8c0,0.3-0.2,0.7-0.5,0.8c-1.3,0.5-2.2,0.2-2.6-1.1C108,56,108.1,55.9,108.3,55.9z
	 M114.1,57.4c-0.1,0.2-0.5,0.2-1,0.1c-0.4-0.1-0.7-0.6-0.6-1s0.4-0.6,0.8-0.6h1.8c0.4,0,0.7,0.3,0.6,0.7c0,0.3-0.3,0.6-0.6,0.7
	C114.8,57.3,114.5,57.4,114.1,57.4z"/>
<ellipse transform="matrix(3.315353e-02 -0.9995 0.9995 3.315353e-02 57.9627 172.9508)" class="st9" cx="118.4" cy="56.5" rx="0.8" ry="1.6"/>
<path class="st9" d="M104.1,59.1c-0.2-0.2-0.2-0.3,0-0.5c0.6-0.4,1.2-0.6,1.9-0.6c0.4,0,0.8,0.3,0.9,0.7c0,0.4-0.3,0.8-0.7,0.9
	C105.4,59.7,104.7,59.5,104.1,59.1z M84.9,58.2c0.1-0.2,0.4-0.2,0.8,0c0.3,0.1,0.4,0.5,0.2,0.8c-0.1,0.2-0.3,0.3-0.5,0.3h-1.7
	c-0.2,0-0.4-0.2-0.5-0.4c0-0.2,0.1-0.4,0.3-0.4C84,58.3,84.5,58.2,84.9,58.2z M89.2,58.2c0.1-0.2,0.4-0.2,0.8,0.1
	c0.3,0.1,0.4,0.5,0.2,0.7c-0.1,0.2-0.3,0.3-0.5,0.3H88c-0.6,0-0.7-0.2-0.3-0.7C88.1,58.3,88.6,58.1,89.2,58.2z M98.2,59.6
	c-0.6-0.4-1.1-0.4-1.7-0.2c-0.2,0.1-0.3,0-0.4-0.2c-0.2-0.4-0.1-1,0.5-1.6c0.4-0.5,1-0.5,1.5-0.2c0.2,0.1,0.3,0.3,0.4,0.5l0.4,1.2
	C99.1,59.8,98.9,60,98.2,59.6z M100.8,58.2c0.7-0.1,1.3,0,2,0.3c0.2,0.1,0.3,0.3,0.3,0.5c-0.1,0.2-0.2,0.3-0.4,0.3h-2.2
	c-0.3,0-0.6-0.2-0.6-0.6c0-0.2,0.1-0.3,0.2-0.4C100.4,58,100.6,58,100.8,58.2z"/>
<ellipse transform="matrix(0.986 -0.1668 0.1668 0.986 -8.2649 19.1216)" class="st9" cx="109.7" cy="58.8" rx="1.4" ry="0.7"/>
<path class="st9" d="M114.5,58c0.3-0.1,0.5,0,0.7,0.2c0.2,0.3,0.2,0.7-0.1,0.9c-0.1,0.1-0.3,0.2-0.4,0.2h-1.3
	c-0.6,0-0.7-0.2-0.4-0.7c0.2-0.2,0.4-0.3,0.7-0.3C113.8,58.3,114,58.2,114.5,58z M119.1,58.2c0.2,0,0.4,0.1,0.6,0.3
	c0.2,0.2,0.1,0.5-0.1,0.7c-0.1,0.1-0.2,0.1-0.3,0.1h-1.7c-0.3,0-0.6-0.3-0.6-0.6c0-0.2,0.1-0.4,0.2-0.5c0.3-0.2,0.6-0.3,1-0.2
	C118.2,58.1,118.6,58.1,119.1,58.2z M123.8,59.4l-2.6-0.2c-0.3,0-0.5-0.3-0.5-0.6s0.3-0.5,0.6-0.5c1-0.1,2,0.1,2.8,0.6
	C125,59.3,124.9,59.6,123.8,59.4z M93.7,59.3h-1.5c-0.3,0-0.5-0.2-0.5-0.4s0.2-0.5,0.4-0.5l0,0l1.7-0.1c0.3,0,0.6,0.2,0.7,0.6
	c0,0.1,0,0.1,0,0.2c-0.1,0.6-0.3,0.7-0.6,0.4C93.9,59.3,93.8,59.3,93.7,59.3z M77.2,60.2c0.3,0,0.5,0.2,0.5,0.5l0,0L77.6,62
	c0,1.3-0.6,2.4-1.2,2.3l0,0H76c-0.6,0-1.1-1.1-1-2.4l0.1-1.3c0-0.3,0.2-0.5,0.5-0.5l0,0L77.2,60.2z M79.4,61.8L79.1,61
	c-0.1-0.3,0-0.6,0.3-0.7c0.1,0,0.1,0,0.2,0H81c0.4,0,0.6,0.2,0.5,0.6l-0.3,2.9c-0.1,0.5-0.5,0.8-1,0.8c-0.1,0-0.3-0.1-0.4-0.2
	c-0.8-0.5-0.9-1.2-0.5-1.9C79.5,62.3,79.6,62,79.4,61.8L79.4,61.8z M83.9,60.3h1.3c0.3,0,0.5,0.2,0.5,0.5v0.4c0,0.4-0.2,0.5-0.6,0.5
	L84,61.5c-0.3,0-0.4-0.2-0.4-0.5v-0.3C83.5,60.4,83.6,60.3,83.9,60.3z"/>
<ellipse transform="matrix(0.9954 -9.584539e-02 9.584539e-02 0.9954 -5.4252 8.8009)" class="st9" cx="88.9" cy="60.9" rx="1.5" ry="0.8"/>
<path class="st9" d="M92.1,61.2c-0.2-0.1-0.3-0.4-0.2-0.6c0.1-0.1,0.2-0.2,0.3-0.2l1.8-0.3c0.4-0.1,0.7,0.2,0.7,0.5
	s-0.1,0.5-0.3,0.7C93.7,61.7,92.9,61.7,92.1,61.2z"/>
<ellipse transform="matrix(5.582377e-02 -0.9984 0.9984 5.582377e-02 31.1447 154.528)" class="st9" cx="97.3" cy="60.8" rx="0.8" ry="1.4"/>
<ellipse transform="matrix(0.9965 -8.367725e-02 8.367725e-02 0.9965 -4.7239 9.0417)" class="st9" cx="105.5" cy="60.9" rx="1.5" ry="0.7"/>
<path class="st9" d="M113.3,61.7c-0.4-0.3-0.4-0.7-0.1-1.2c0.1-0.1,0.2-0.2,0.3-0.2h1.1c0.5,0,0.7,0.3,0.7,0.8
	c0,0.2-0.2,0.2-0.4,0.3c-0.2,0-0.4,0.2-0.3,0.5c0,0.1,0.1,0.2,0.2,0.3l0.7,0.4c0.2,0.1,0.2,0.3,0.2,0.5c-0.4,0.9-1.1,1.2-2.1,1
	c-0.5-0.1-0.7-0.4-0.5-0.9l0.4-1C113.5,62,113.5,61.8,113.3,61.7L113.3,61.7z M119.6,60.2c0.2,0,0.3,0.2,0.3,0.4
	c0,0.1,0,0.1-0.1,0.2c-0.7,0.7-0.7,1.5-0.3,2.4c0.3,0.5,0.1,0.8-0.4,0.9l-1.1,0.2c-0.4,0.1-0.7-0.2-0.8-0.5c0,0,0,0,0-0.1l-0.2-3
	c0-0.3,0.2-0.6,0.6-0.6h0.1C117.7,60,119.6,60.2,119.6,60.2z M100.2,61.1c-0.2-0.1-0.3-0.4-0.1-0.6c0.1-0.1,0.2-0.2,0.4-0.2h1.8
	c0.3,0,0.6,0.3,0.6,0.6c0,0.3-0.2,0.5-0.5,0.6C101.6,61.7,100.9,61.6,100.2,61.1z"/>
<ellipse transform="matrix(0.9996 -2.792192e-02 2.792192e-02 0.9996 -1.6569 3.0867)" class="st9" cx="109.7" cy="60.9" rx="1.4" ry="0.7"/>
<path class="st9" d="M121.7,61.6c-0.3,0.1-0.7-0.1-0.7-0.5c0-0.1,0-0.1,0-0.2s0-0.2,0-0.3c0-0.2,0.2-0.4,0.4-0.4l0,0h2.1
	c0.3,0,0.5,0.2,0.5,0.5c0,0.2-0.2,0.4-0.4,0.5C123.5,61.2,121.7,61.6,121.7,61.6z"/>
<path class="st9" d="M88.5,62.4l21.9-0.1c0.5,0,0.8,0.4,0.8,0.8v0.1c0,0.5-0.4,0.8-0.8,0.8l-21.9,0.1c-0.5,0-0.8-0.4-0.8-0.8v-0.1
	C87.7,62.7,88,62.4,88.5,62.4z"/>
<path class="st9" d="M84.2,63.8h-0.4c-0.4,0-0.6-0.4-0.5-0.8c0.1-0.3,0.4-0.6,0.8-0.7c1-0.2,1.8,0.1,2.1,1c0.1,0.3,0,0.5-0.3,0.7
	c-0.3,0.2-0.7,0.2-1,0C84.7,63.9,84.4,63.8,84.2,63.8z M122.1,62.3l1.3,0.2c0.3,0.1,0.5,0.3,0.4,0.6c0,0.1-0.1,0.2-0.1,0.3
	c-0.5,0.6-1.2,0.8-2,0.5c-0.5-0.1-0.7-0.6-0.6-1C121.2,62.5,121.6,62.2,122.1,62.3z"/>
<path class="st8" d="M135.8,75c0.3-0.2,0.5-0.4,0.6-0.7c4.5-3.2,8.4-2.9,11.8,0.8c0.2,0.2,0.3,0.5,0.4,0.8c0.3,6.5-11,5.4-11.8,0
	c0-0.3-0.2-0.6-0.5-0.8C136.1,75.1,135.9,75,135.8,75z"/>
<path class="st7" d="M180.9,97.3c-0.1,1,0.3,1.2,1,0.5c1.6-1.5,3.5-1.7,5.7-0.9c0.5,0.2,0.9,0.7,0.9,1.3l0.3,9
	c0,0.4-0.2,0.6-0.6,0.6h-1c-0.3,0-0.5-0.2-0.5-0.5v-8c0-1-0.8-1.8-1.8-1.8c-0.3,0-0.6,0.1-0.8,0.2l-2.5,1.2
	c-0.4,0.2-0.6,0.5-0.6,0.9v7.5c0,0.4-0.2,0.6-0.6,0.6h-0.8c-0.3,0-0.5-0.2-0.5-0.5V92c0-0.4,0.2-0.5,0.5-0.5h0.9
	c0.4,0,0.6,0.2,0.6,0.7L180.9,97.3L180.9,97.3z M26.6,98.7l4.2-6.1c0.1-0.2,0.3-0.4,0.6-0.5l0.6-0.3c0.2-0.1,0.5-0.1,0.6,0.2
	c0.1,0.2,0.1,0.4,0,0.5c-1.4,1.9-2.8,3.9-4.2,5.8c-1.9,2.8-1.5,5.7-1.3,8.9c0,0.4-0.2,0.6-0.6,0.6h-0.9c-0.3,0-0.6-0.3-0.6-0.6v-6.3
	c0-0.3-0.1-0.6-0.3-0.8L19.4,93c-0.4-0.6-0.3-0.9,0.4-0.9h0.7c0.4,0,0.7,0.2,1,0.5l4.4,6.2C26.2,99.1,26.4,99.1,26.6,98.7z
	 M63.1,107c1.8,0.5,3.5,0.2,5.1-1.2c0.3-0.3,0.5-0.2,0.6,0.2c0.1,0.3,0,0.7-0.3,1.1c-0.2,0.3-0.5,0.4-0.8,0.5
	c-15.4,4.3-16.3-18.5-1.3-15.7c1.1,0.2,1.9,0.8,2.5,1.7c0.3,0.5,0.2,0.6-0.3,0.4C55.9,89,54.6,104.4,63.1,107z M170.4,93.8
	c-2.1,4.4,9.9,8.3,4.3,13.3c-1.7,1.5-3.7,1.6-5.9,0.2c-0.8-0.5-1-1.2-0.5-2c0.2-0.3,0.4-0.3,0.5,0c0.8,1.3,1.9,1.9,3.5,1.8
	c1.2-0.1,2.1-1.2,2-2.4c0-0.3-0.2-0.7-0.3-1c-1-1.6-2.3-3.1-3.8-4.5c-3.9-3.7-0.2-9.6,4.5-6.7c0.7,0.4,0.9,0.9,0.5,1.6
	c-0.1,0.2-0.4,0.3-0.6,0.2c-0.1,0-0.1-0.1-0.2-0.2c-0.7-1.3-1.8-1.6-3.2-0.9C170.8,93.3,170.5,93.5,170.4,93.8L170.4,93.8z
	 M11.1,101.2c-0.1-0.1-0.3-0.2-0.4-0.1c0,0,0,0-0.1,0.1c-1.6,2.2-3.3,4.4-5.1,6.6c-0.3,0.4-0.6,0.5-1,0.5c-0.2,0-0.4-0.2-0.4-0.4
	c0-0.1,0-0.2,0.1-0.2l5.7-7.4c0.2-0.3,0.2-0.6,0-0.9l-5.2-6.9c-0.1-0.2-0.1-0.3,0.1-0.4c2.6-1,4.9,4,6.3,5.7c0.2,0.3,0.5,0.3,0.7,0
	c1.5-1.8,2.9-3.5,4.3-5.3c0.4-0.5,0.8-0.7,1.4-0.6c0.4,0.1,0.4,0.3,0.2,0.6l-4.9,5.9c-0.4,0.5-0.4,1.1,0,1.6l5.6,7.2
	c0.3,0.4,0.2,0.5-0.3,0.5h-1.5c-0.3,0-0.5-0.1-0.6-0.3C15.9,107.5,11.1,101.2,11.1,101.2z M36.7,106.9l9.7-0.5c0.1,0,0.2,0,0.2,0.1
	l0.8,0.8c0.1,0.1,0.1,0.3,0,0.4s-0.1,0.1-0.2,0.1H33.7c-0.2,0-0.3-0.1-0.3-0.3c0-0.1,0-0.1,0.1-0.2l10.2-14c0.1-0.1,0.1-0.3-0.1-0.4
	c-0.1,0-0.1-0.1-0.2-0.1l-8.9,0.4c-0.2,0-0.3-0.1-0.3-0.3l0,0v-0.7c0-0.2,0.1-0.3,0.3-0.3h12.1c0.2,0,0.3,0.1,0.3,0.3
	c0,0.1,0,0.1-0.1,0.2l-10.4,14c-0.1,0.1-0.1,0.3,0.1,0.4C36.6,106.9,36.7,106.9,36.7,106.9z M135.6,107.1l1.5-0.4
	c0.2-0.1,0.5,0.1,0.6,0.3c0,0.1,0,0.2,0,0.3c-0.1,0.4-0.5,0.6-1,0.7c-1.3,0.3-2.6,0-3.7-0.7c-0.3-0.2-0.5-0.5-0.5-0.8
	c-0.5-2.4-0.6-5.1-0.4-8c0.1-1-0.4-1.5-1.4-1.5c-0.2,0-0.3-0.2-0.3-0.3c0-0.1,0.1-0.3,0.2-0.3l0.9-0.2c0.3-0.1,0.5-0.3,0.5-0.6v-2.3
	c0-0.3,0.2-0.5,0.5-0.5h1c0.3,0,0.5,0.2,0.5,0.5v2.4c0,0.4,0.2,0.6,0.6,0.6h2.6c0.5,0,0.7,0.2,0.5,0.7l-0.1,0.2
	c0,0.1-0.1,0.2-0.2,0.2l-2.7-0.1c-0.4,0-0.6,0.2-0.6,0.6v7.9c0,0.7,0.6,1.3,1.3,1.3C135.4,107.1,135.5,107.1,135.6,107.1
	L135.6,107.1z M82.7,102.2c0,3.3-2.6,5.9-5.9,5.9l0,0c-3.3,0-5.9-2.6-5.9-5.9l0,0c0-3.3,2.6-5.9,5.9-5.9l0,0
	C80,96.3,82.7,98.9,82.7,102.2L82.7,102.2z M77.3,107.2c2.1-0.2,3.5-2.7,3.2-5.4l0,0c-0.3-2.7-2.3-4.8-4.4-4.5
	c-2.1,0.2-3.5,2.7-3.2,5.4l0,0C73.3,105.4,75.2,107.4,77.3,107.2z M87.9,97.6c2.2-1.7,4.3-1.6,6.2,0.1c0.3,0.3,0.6,0.3,0.9,0.1
	c8.4-5.3,6.8,5.5,6.7,9.4c0,0.3-0.2,0.5-0.5,0.5h-0.7c-0.4,0-0.7-0.3-0.7-0.7l0,0v-7.9c0-1-0.8-1.8-1.8-1.8c-0.3,0-0.6,0.1-0.9,0.2
	l-2.2,1.3c-0.2,0.1-0.4,0.3-0.4,0.6v7.8c0,0.3-0.2,0.5-0.5,0.5h-0.9c-0.3,0-0.5-0.2-0.5-0.5l-0.1-7.9c0-1-0.8-1.7-1.8-1.7
	c-0.2,0-0.4,0-0.6,0.1l-2.5,1c-0.3,0.1-0.4,0.4-0.4,0.7l-0.2,7.9c0,0.3-0.2,0.5-0.5,0.5h-0.7c-0.3,0-0.5-0.2-0.5-0.5L85,97.4
	c0-0.6,0.4-1.1,1.1-1.1c0.1,0,0.2,0,0.4,0c0.5,0.1,0.7,0.5,0.8,1.1C87.4,97.8,87.6,97.9,87.9,97.6L87.9,97.6z M107.2,108.1
	c-0.3,1.3-0.3,2.7,0,4c0.2,0.9-0.1,1.3-0.9,1.4c-0.5,0.1-0.9-0.3-0.9-0.7v-0.1L105.3,97c0-0.4,0.2-0.6,0.6-0.5
	c2.6,0.1,6.7-0.7,8.5,1.3c4.3,4.9-0.2,11.9-6.4,10C107.4,107.6,107.2,107.7,107.2,108.1z M110.1,107.3c1.9,0,3.5-2.3,3.5-5.1l0,0
	c0-2.8-1.5-5.1-3.5-5.1c-1.9,0-3.5,2.3-3.5,5.1l0,0C106.6,105,108.2,107.3,110.1,107.3z M122.3,106.7l3.2-0.9
	c0.4-0.1,0.6-0.4,0.7-0.8l0.2-7.8c0-0.4,0.2-0.6,0.6-0.6h0.8c0.4,0,0.6,0.2,0.5,0.6c-0.3,3.3-0.3,6.5-0.1,9.8
	c0.1,0.6-0.3,1.1-0.9,1.1c-0.4,0-0.9-0.2-1-0.6l-0.3-0.6c-0.2-0.3-0.4-0.4-0.7-0.3c-8.6,4.3-6.4-5-6.8-9.6c0-0.3,0.2-0.5,0.4-0.5
	l1.1-0.3c0.6-0.1,0.8,0.1,0.8,0.7c-0.2,1.8-0.8,7.4,0.7,9.5C121.5,106.7,121.9,106.8,122.3,106.7L122.3,106.7z M142.1,102.7
	c-0.1,4,3.8,5.6,6.9,3.3c0.6-0.4,0.7-0.3,0.4,0.3c-2.4,4.7-9.8,0.4-9.6-4.5c0.1-6.6,9.8-7.7,10.6-0.5c0.1,0.5-0.3,0.9-0.8,1h-0.1h-7
	C142.3,102.3,142.1,102.4,142.1,102.7z M142.6,101.3h5c0.3,0,0.6-0.3,0.6-0.6v-0.2c0-1.8-1.3-3.2-3-3.2H145c-1.7,0-3,1.4-3,3.2v0.2
	C142,101,142.3,101.3,142.6,101.3z M155.4,97.1c0.8,0,1.5-0.2,2.1-0.5c0.3-0.1,0.6-0.2,0.9-0.2c1,0,1.4,0.4,1.3,1.2
	c-0.1,0.4-0.3,0.6-0.7,0.4c-1.4-0.4-2.7-0.2-3.9,0.6c-0.2,0.2-0.3,0.4-0.4,0.7v7.9c0,0.4-0.3,0.7-0.7,0.7h-0.1l-0.7-0.2
	c-0.3-0.1-0.5-0.3-0.5-0.6l-0.1-10.2c0-0.3,0.2-0.5,0.5-0.5c0.5-0.1,1,0,1.4,0.3C154.8,97,155.1,97.1,155.4,97.1L155.4,97.1z
	 M203.2,102.2c0,3.3-2.6,5.9-5.9,5.9s-5.9-2.6-5.9-5.9s2.6-5.9,5.9-5.9S203.2,98.9,203.2,102.2z M197.8,107.2
	c2.1-0.2,3.5-2.7,3.2-5.4c-0.3-2.8-2.3-4.8-4.4-4.6c-2.1,0.2-3.6,2.7-3.2,5.4l0,0C193.8,105.4,195.7,107.4,197.8,107.2L197.8,107.2z
	 M207.4,108.3l0.3,4.4c0,0.4-0.1,0.5-0.5,0.5H206c-0.3,0-0.4-0.1-0.4-0.4V96.6c0-0.2,0.2-0.4,0.4-0.4h0.1c1.1,0.3,2.2,0.4,3.3,0.2
	c10.1-1,8.5,13.7-1.4,11.2C207.6,107.6,207.4,107.8,207.4,108.3z M207.5,98.8v6.7c0,0.8,0.7,1.5,1.5,1.5l0,0h1.6
	c2,0,3.6-2.1,3.6-4.7v-0.5c0-2.6-1.7-4.6-3.7-4.6l0,0h-1.6C208.2,97.3,207.5,98,207.5,98.8L207.5,98.8L207.5,98.8z"/>
<ellipse transform="matrix(0.9934 -0.1149 0.1149 0.9934 -11.2328 9.489)" class="st5" cx="76.7" cy="102.2" rx="3.8" ry="5"/>
<ellipse transform="matrix(5.235945e-03 -1 1 5.235945e-03 7.2944 211.7953)" class="st5" cx="110.1" cy="102.2" rx="5.1" ry="3.5"/>
<path class="st9" d="M142.6,101.3c-0.3,0-0.6-0.3-0.6-0.6v-0.2c0-1.8,1.3-3.2,3-3.2h0.2c1.7,0,3,1.4,3,3.2v0.2
	c0,0.3-0.3,0.6-0.6,0.6H142.6z"/>
<ellipse transform="matrix(0.9936 -0.1132 0.1132 0.9936 -10.2975 22.9913)" class="st5" cx="197.3" cy="102.2" rx="3.8" ry="5"/>
<path class="st5" d="M207.5,98.8c0-0.8,0.7-1.5,1.5-1.5l0,0h1.6c2,0,3.7,2.1,3.7,4.6l0,0v0.5c0,2.6-1.6,4.6-3.6,4.7h-1.6
	c-0.8,0-1.5-0.7-1.5-1.5l0,0L207.5,98.8L207.5,98.8z"/>
</svg>
